inDegrees=yes
name=ik_S44_A05_T01
DataType=double
version=3
OpenSimVersion=4.3-2021-08-27-4bc7ad9
endheader
time	pelvis_tilt	pelvis_list	pelvis_rotation	pelvis_tx	pelvis_ty	pelvis_tz	hip_flexion_r	hip_adduction_r	hip_rotation_r	knee_angle_r	knee_angle_r_beta	ankle_angle_r	subtalar_angle_r	mtp_angle_r	hip_flexion_l	hip_adduction_l	hip_rotation_l	knee_angle_l	knee_angle_l_beta	ankle_angle_l	subtalar_angle_l	mtp_angle_l	lumbar_extension	lumbar_bending	lumbar_rotation	arm_flex_r	arm_add_r	arm_rot_r	elbow_flex_r	pro_sup_r	wrist_flex_r	wrist_dev_r	arm_flex_l	arm_add_l	arm_rot_l	elbow_flex_l	pro_sup_l	wrist_flex_l	wrist_dev_l
28.87999999999947	-4.430480038503508	-1.351419320968547	27.03483431420205	0	0.9399999999999999	0	44.20524307741563	-10.08093762546026	-10.14121484633583	54.54771504705953	0.9520372270108425	0	0	0	44.20524307741563	-10.08093762546026	-10.14121484633583	54.54771504705953	0.9520372270108425	0	0	0	-1.571861289912539	-2.449851496084163	14.3884727168125	66.88049383777684	-14.24042492745772	3.264070871942472	20.17116922124169	83.55830607035315	0	0	19.201662633456	-3.699478447338236	2.494896738507018	51.99663247173539	132.7411030706615	0	0
28.89999999999947	-4.415210471541301	-1.326129356848526	27.04304985160502	0	0.9399999999999999	0	44.20541024317609	-10.08087890500532	-10.14114885369362	54.54777952032763	0.9520383522816502	0	0	0	44.20541024317609	-10.08087890500532	-10.14114885369362	54.54777952032763	0.9520383522816502	0	0	0	-1.546748218909281	-2.434699837432218	14.40960967817531	66.77205557113331	-14.19639260049128	3.072516498251523	20.15254454650928	83.71645357447696	0	0	19.17796902462291	-3.649685542995494	2.558697368308249	51.96501645357701	132.7505020782252	0	0
28.91999999999947	-4.407597677618998	-1.324690093841298	27.08825582033212	0	0.9399999999999999	0	44.2056515008782	-10.08079353095516	-10.14105313413453	54.54787187474575	0.9520399641703253	0	0	0	44.2056515008782	-10.08079353095516	-10.14105313413453	54.54787187474575	0.9520399641703253	0	0	0	-1.539973160500678	-2.436245579434531	14.40679329808989	66.7204410903361	-14.09761515866093	2.898764906640959	20.08746995935309	83.94697354956968	0	0	19.18859777572901	-3.633153388129939	2.592102900069661	51.92589333790251	132.7917139227163	0	0
28.93999999999947	-4.404888682418044	-1.309539607245652	27.1337573485476	0	0.9399999999999999	0	44.20575276234415	-10.08075815116784	-10.14101329121916	54.5479110807505	0.9520406484441947	0	0	0	44.20575276234415	-10.08075815116784	-10.14101329121916	54.5479110807505	0.9520406484441947	0	0	0	-1.530700254194535	-2.424150960652485	14.41671417196059	66.69764000000782	-14.11778245445653	2.769529075685691	20.09873100144044	83.79651539839901	0	0	19.21650498884773	-3.606165436220449	2.576931706493932	51.9070970787327	132.8387770801306	0	0
28.95999999999947	-4.38633926333667	-1.309211777143431	27.17313527733295	0	0.9399999999999999	0	44.20656597874349	-10.08055667777691	-10.14074803156569	54.54823930688494	0.9520463770709319	0	0	0	44.20656597874349	-10.08055667777691	-10.14074803156569	54.54823930688494	0.9520463770709319	0	0	0	-1.516154073294715	-2.430124638434789	14.41136907937616	66.6655350128725	-14.12762501874761	2.745698638009657	20.11322268948573	83.67050234272978	0	0	19.24177623464768	-3.622493344612766	2.53426058839295	51.87340273947407	132.8716136813924	0	0
28.97999999999947	-4.382484585811671	-1.291138122762209	27.20218576386533	0	0.9399999999999999	0	44.20663993951109	-10.08053124790601	-10.14071923318666	54.54826833386543	0.9520468836873133	0	0	0	44.20663993951109	-10.08053124790601	-10.14071923318666	54.54826833386543	0.9520468836873133	0	0	0	-1.504256253747092	-2.416377756818702	14.4312459803932	66.66962579310123	-14.18916700346872	2.610942118400322	20.09425953015835	83.68002870361796	0	0	19.21838645662507	-3.5930887792016	2.540374371091693	51.86198844457711	132.885958452188	0	0
28.99999999999947	-4.351615698479975	-1.283912337606274	27.2762450167238	0	0.9399999999999999	0	44.20686227054079	-10.08045274543745	-10.14063112138328	54.54835343045028	0.9520483689029011	0	0	0	44.20686227054079	-10.08045274543745	-10.14063112138328	54.54835343045028	0.9520483689029011	0	0	0	-1.47343101547861	-2.424548752664718	14.45600058412247	66.66865136277296	-14.28110518886019	2.447256053090604	20.00452215968429	83.829040297657	0	0	19.29900815250669	-3.568285655803487	2.521327574959185	51.73081802221802	133.020893659055	0	0
29.01999999999947	-4.340646686537286	-1.265483765238655	27.31732903791535	0	0.9399999999999999	0	44.20700667982391	-10.08040203814149	-10.1405740932829	54.54840895715738	0.9520493380267628	0	0	0	44.20700667982391	-10.08040203814149	-10.1405740932829	54.54840895715738	0.9520493380267628	0	0	0	-1.455097426298147	-2.413692530014827	14.47850885632797	66.72462651575589	-14.36287617280064	2.413709480031554	19.88786909903329	83.82345835658673	0	0	19.32488240491548	-3.549797344076504	2.542740416118248	51.67988972307221	133.0480360922127	0	0
29.03999999999947	-4.329352722825869	-1.250895932455309	27.33743866880705	0	0.9399999999999999	0	44.20721366215874	-10.08032959977078	-10.14049253391162	54.54848879194491	0.9520507314066627	0	0	0	44.20721366215874	-10.08032959977078	-10.14049253391162	54.54848879194491	0.9520507314066627	0	0	0	-1.437796969503838	-2.407264979297635	14.52998157633109	66.77380257159216	-14.57750785294747	2.324623181012974	19.68195471192173	83.91804610024373	0	0	19.35212130251616	-3.520295471383656	2.547919490261553	51.60383644414352	133.1011135290123	0	0
29.05999999999947	-4.320916655245118	-1.233353855401119	27.33212092897858	0	0.9399999999999999	0	44.20746451439955	-10.08024176959586	-10.14039364278415	54.54858542790654	0.9520524180223692	0	0	0	44.20746451439955	-10.08024176959586	-10.14039364278415	54.54858542790654	0.9520524180223692	0	0	0	-1.421234235806306	-2.397681545248394	14.60880213004354	66.83783703747703	-14.83374717336147	2.163846804158083	19.41976013464683	84.45042140242997	0	0	19.36525977146771	-3.489299340901761	2.580776499826178	51.54105377825586	133.1375155130434	0	0
29.07999999999947	-4.318875157866744	-1.230685504590298	27.30285628083838	0	0.9399999999999999	0	44.20772696791379	-10.0801493117019	-10.14028974513586	54.54868589628326	0.952054171526337	0	0	0	44.20772696791379	-10.0801493117019	-10.14028974513586	54.54868589628326	0.952054171526337	0	0	0	-1.417730552812802	-2.397421828786809	14.65999472795863	66.95724659930436	-15.06812579087877	1.978552861957365	19.29911288666305	84.92559506499063	0	0	19.40820564215919	-3.49468347661566	2.569966510611637	51.49021611980027	133.1464791780923	0	0
29.09999999999947	-4.284036499025351	-1.206733313647596	27.29460960472278	0	0.9399999999999999	0	44.20798722456711	-10.08005744876132	-10.14018657054888	54.54878527677821	0.9520559060431861	0	0	0	44.20798722456711	-10.08005744876132	-10.14018657054888	54.54878527677821	0.9520559060431861	0	0	0	-1.375254984574457	-2.393499952288967	14.71736326240361	66.89718842381689	-15.39857981072633	1.888047566138318	19.35260328863605	85.14335102572791	0	0	19.37488940948824	-3.495558507192122	2.625680053226162	51.43561069589836	133.1319243315691	0	0
29.11999999999947	-4.273146269473873	-1.205953574584992	27.21762087343216	0	0.9399999999999999	0	44.20830377475403	-10.07994611110394	-10.14006135269234	54.54890645860062	0.9520580210649807	0	0	0	44.20830377475403	-10.07994611110394	-10.14006135269234	54.54890645860062	0.9520580210649807	0	0	0	-1.363725726962862	-2.400845788104586	14.83559234680754	66.48653424034433	-15.89932380486536	1.630209884424664	20.1737162231859	85.97469794197519	0	0	19.41579698862003	-3.494547469452367	2.685689164803494	51.37963963255349	133.1121408410702	0	0
29.13999999999947	-4.272683683029293	-1.215353801167335	27.24755449912609	0	0.9399999999999999	0	44.20850893719071	-10.07987548928742	-10.13998133734876	54.54898655345163	0.9520594189838447	0	0	0	44.20850893719071	-10.07987548928742	-10.13998133734876	54.54898655345163	0.9520594189838447	0	0	0	-1.36802546456384	-2.408471783700425	14.82389695441953	66.51395391567924	-15.96143608490033	1.613288820400417	20.71029158931445	86.57409001226814	0	0	19.47907541375315	-3.503119569165186	2.695543567559906	51.34706583701342	133.1042808677667	0	0
29.15999999999947	-4.245230563307445	-1.218855625353782	27.178582548693	0	0.9399999999999999	0	44.20885400520127	-10.07975488410308	-10.13984536486175	54.54911923216099	0.9520617346641703	0	0	0	44.20885400520127	-10.07975488410308	-10.13984536486175	54.54911923216099	0.9520617346641703	0	0	0	-1.344540854563189	-2.42624587347336	14.91297340994109	66.28367741282885	-16.17909024835506	1.227506605529204	22.31764482435579	86.19700597030052	0	0	19.44323552823435	-3.548326169568769	2.732442264677398	51.34179371013176	133.1096482176621	0	0
29.17999999999947	-4.253954317328804	-1.240037083596568	27.07153443903654	0	0.9399999999999999	0	44.20907741229947	-10.07967700973025	-10.13975747657567	54.54920529162355	0.9520632366851445	0	0	0	44.20907741229947	-10.07967700973025	-10.13975747657567	54.54920529162355	0.9520632366851445	0	0	0	-1.362132892877369	-2.44150917630405	14.95915957857924	66.1690301722284	-16.3434554413945	0.9057394300559064	23.56538569756525	85.91483903474325	0	0	19.52954458173881	-3.59648305624566	2.668250757208315	51.34801266635395	133.1285751976359	0	0
